# xmcd
#
# Track frame offsets:
#	150
#	18885
#	38310
#	56850
#	75042
#	94530
#	113167
#	134707
#	147505
#	163692
#	179867
#	196725
#
# Disc length: 2845 seconds
#
# Revision: 1
# Processed by: cddbd v1.4b42PL1 Copyright (c) Steve Scherf et al.
# Submitted via: audiograbber 1.80
#
DISCID=990b1b0c
DTITLE=Chitãozinho e Xororó - Grandes Sucessos
DYEAR=1900
DGENRE=
TTITLE0=Nuvem de Lágrimas
TTITLE1=Nossa História
TTITLE2=Peão De Rodeio
TTITLE3=Brincar De Ser Feliz
TTITLE4=A Minha Vida
TTITLE5=Foge De Mim
TTITLE6=Tudo Por Amor
TTITLE7=Ave Maria
TTITLE8=40 e 20
TTITLE9=Saudade Dela
TTITLE10=Feito Eu
TTITLE11=Deixa
EXTD=
EXTT0=
EXTT1=
EXTT2=
EXTT3=
EXTT4=
EXTT5=
EXTT6=
EXTT7=
EXTT8=
EXTT9=
EXTT10=
EXTT11=
PLAYORDER=
